<?xml version="1.0" encoding="utf-8"?>
<!-- Generator: Adobe Illustrator 28.3.0, SVG Export Plug-In . SVG Version: 6.00 Build 0)  -->
<svg version="1.1" id="Layer_1" xmlns="http://www.w3.org/2000/svg" xmlns:xlink="http://www.w3.org/1999/xlink" x="0px" y="0px"
	 viewBox="0 0 160 160" style="enable-background:new 0 0 160 160;" xml:space="preserve">
<style type="text/css">
	.st0{fill:#F4ECDD;}
	.st1{fill:#713A20;}
	.st2{fill:#B94E16;}
	.st3{fill:#FCD480;}
	.st4{fill:#CAB189;}
	.st5{fill:#DFC9A7;}
	.st6{fill:#E36A25;}
	.st7{fill:#ECEAC0;}
	.st8{fill:#FDB81D;}
	.st9{fill:#EA5322;}
	.st10{fill:#FDE46B;}
	.st11{fill:#FEF3A4;}
	.st12{fill:#EEBBA2;}
	.st13{fill:#F6DF8E;}
	.st14{fill:#FC573D;}
	.st15{fill:#F4A265;}
	.st16{fill:#E49D4D;}
	.st17{fill:#FFC36F;}
	.st18{fill:#F88C51;}
	.st19{fill:#F0C796;}
	.st20{fill:#FEFCDD;}
	.st21{fill:#574528;}
	.st22{fill:#4C3214;}
	.st23{fill:#492C23;}
	.st24{fill:#522D12;}
	.st25{fill:#A16A36;}
	.st26{fill:#FDFE71;}
	.st27{fill:#FFAD40;}
	.st28{fill:#FAC731;}
	.st29{fill:#E87611;}
	.st30{fill:#FAE7AF;}
	.st31{fill:#FA7135;}
	.st32{fill:#FBFBFB;}
	.st33{fill:#FD8A2C;}
	.st34{fill:#FD311E;}
</style>
<g>
	<g>
		<path class="st0" d="M80.8,122.3c-1.4-0.1-1.8-0.4-1,2c-2.5-0.9-5-1.8-7.5-3c1.5-2,1.5-2,3-4.1C80.7,119.9,80.5,122.2,80.8,122.3z
			"/>
		<path class="st1" d="M27.3,60.5c0,0.5,0,0.5,0,1c-2,1.2-4.6,4.3-6.5,3.5c0.2-0.8,0.2-0.8,0.5-1.5C22,63.4,26.5,61.1,27.3,60.5z"/>
		<g>
			<path class="st2" d="M17.3,67.6c-4,6.3-10,7-14.5,9.1C10.1,72.2,10.1,72.2,17.3,67.6z"/>
			<path class="st3" d="M75.3,117.3c-1.5,2-1.5,2-3,4.1c-7.7-3.6-15.5-8.4-23-13.2C57.7,109.7,66.9,113.1,75.3,117.3z"/>
			<path class="st4" d="M82.6,125.4c3.6,1.3,3.6,1.3,7.2,2.5C89,130.5,83.7,127.9,82.6,125.4z"/>
			<path class="st5" d="M79.8,124.4c1,0.3,1,0.3,2,0.5C79.9,126.5,79.9,124.4,79.8,124.4z"/>
			<path class="st6" d="M156.3,60.5c0.6,5.6,1.5,6.5,1.5,7.1c0.2,8-6.6,17.8-10.5,16.2c3.9-5.7,6.6-12.3,7-22.3
				C155.3,61.8,155.4,60.2,156.3,60.5z"/>
		</g>
		<g>
			<path class="st7" d="M37.3,59.5c0.2,0,0.3,0,0.5,0c-0.5,6.1,1.6,2.6,1.5,6.1c-12.3,4-5.4,0,1,7.1c0.2,0.2-1,4.8,3,2.5
				c-1,3.8-1,3.8-2,7.6c-8.2-5.5-10.8,1.6-13,4.1c-3,3.4-7.4-4.6-10,1c-2.5-1.7-5-3.3-7.5-5.1c-0.4-4.6,7.1-6.8,10-13.2
				C26.1,68.1,32.8,60.2,37.3,59.5z"/>
			<path class="st8" d="M39.3,65.6c1.8,1.5,1.8,1.5,3.5,3c-1,1-1.5,3.1-2.5,4.1C33.9,65.5,27,69.6,39.3,65.6z"/>
			<path class="st8" d="M25.1,74.7c1.1,0.8,1.1,0.8,2.2,1.5C26.9,84.8,23.1,75.7,25.1,74.7z"/>
		</g>
	</g>
	<g>
		<path class="st9" d="M92.8,124.4c-0.1,0.2,0.1,0.8,0,1c-3.9,0-8.3-0.8-12-3c-0.3-0.2-0.2-2.4-5.5-5.1c-8.4-4.1-17.7-7.5-26-9.1
			c-1.2-0.8-2.7-1.3-2.5-4.1c23.2,9.3,29.4,8.4,53.3,8.1C97.1,117.6,96,117.8,92.8,124.4z"/>
		<path class="st0" d="M95.8,46.3c-1.4,1.5-4.3,6.1-4,9.6c8.4,19.3,14.8,3.5,16,2.5c0.8-0.6,2.1,1.4,3,0
			c-0.4,12.5,5.9,10.4,10.5,8.1c1.1,6.7-6,6.2-9,6.1c-4-0.1-8.5-0.9-12.2-4.1c-0.4,0.8-0.4,0.8-0.8,1.5c7.5,2.9,2.9,5.3,8.5,16.7
			c-2-0.6-4-1.3-6-1c-2.6,0.3-5,2.4-7.5,4.1c-0.8-1.5-0.8-1.5-1.5-3c1.5-0.9,6.1-6.8,5.5-10.6c-10.6-15.8-25.1-2.9-18.5,7.6
			c-0.3,2.6,0.4,4.7,0.5,7.1c-4.1-8-6.5-7.5-11.5-7.1c-0.2-2.5-0.2-2.5-0.5-5.1c2.5-5.1,3.4,3.1,6-3.5c-1.3-2.7-1-2.2-1.5-5.6
			c-0.2-1.1,0.1-2.9,0-4.1c3.8,2.6,7,0,8.5,0c9.8,0.3,13.8,5.9,14,4.6c-3.5-4.1-6.7-9.3-10-13.7c-1.6-2.2-5.7-2.4,0-2.5
			c-1.2-6.3-6.1-5.8-9-4.6c1.1-3.4,0.4-4.6,0.8-5.1c0.3-0.3,1.2,0.3,1.8,0c0.7-0.3,1.3-0.9,2-1c0.4-0.1,1.8,1.6,4.8,1
			c1.8-0.3,8.5-3.1,9.2-3C97.6,41.6,96.8,42.8,95.8,46.3z"/>
		<path class="st9" d="M100.8,43.3c2.2,5.8-0.1,4.2,0.8,6.1c0.7,1.5,2.1-1,4.8-2c2.4,4.3,2.2,4.4,1.5,11.2c-1.2,1-7.6,16.8-16-2.5
			c-0.3-3.6,2.6-8.1,4-9.6C97,45,99.6,43.3,100.8,43.3z"/>
		<path class="st9" d="M41.3,82.8c8.8,17-9,20.1-13,4.1C30.5,84.4,33.2,77.3,41.3,82.8z"/>
		<path class="st9" d="M101.8,85.9c0.4,3.8-2.4,0.9-3,2.5c-0.1,0.2,1.5,0.6,1,2.5c-2.7-1.1-7.4,5.8-2.5,5.1
			c2.7,13.6-9.3-0.7-0.2,11.1c-4.9-1-4.9-1-9.8-2c-3.4-10,3.4-12.8,7-15.2C96.8,88.2,99.2,86.2,101.8,85.9z"/>
		<path class="st10" d="M112.3,72.7c-1.4,5.5-5.2,0.6-5.5,5.6c3.4,2.6,6.4,7.4,8.5,13.7c-2.8-2.7-4.4-4.1-7.5-5.1
			c-5.6-11.4-1-13.9-8.5-16.7c0.4-0.8,0.4-0.8,0.8-1.5C103.8,71.8,108.3,72.5,112.3,72.7z"/>
		<path class="st11" d="M131.8,60.5c3,1,7.7,1.5,5,7.1c-1.6,1.8-3.2,0.7-3,3c-2.1-0.9-4.3-1.7-6.5-1c-1-6.7-3.4,0.8-3-5.1
			c1.2-1.2,2.4-2.4,3.5-4.1C127.7,64.8,131.3,60.9,131.8,60.5z"/>
		<path class="st7" d="M84.3,31.1c-5.9,1.3-7.6,1.9-3.5,12.2c-0.7,0.1-1.3,0.7-2,1c-2.5-1.1-3.9,0.9-6.5-1c-0.4-0.3-2.4-1.9-2.5-2
			c-0.1-0.1,0.6-1.3-1.5-3C73.8,35.5,79.1,31.1,84.3,31.1z"/>
		<path class="st8" d="M68.3,78.8c-9.1-7.1,1.8-3.3,4.5-9.1c0.5,3.3,0.2,2.9,1.5,5.6C71.7,81.9,70.9,73.7,68.3,78.8z"/>
		<g>
			<path class="st9" d="M84.3,31.1c2.4,0,4.6,0.4,7,1c2.5,0.6,3.8,3,4,3c-1.1,2.9-2.3,3.8-0.5,6.1c-0.8-0.1-7.4,2.7-9.2,3
				c-2.9,0.5-4.3-1.1-4.8-1C76.7,33,78.4,32.4,84.3,31.1z"/>
			<path class="st12" d="M87.1,36.2c0.6,0.3,0.6,0.3,1.2,0.5C85.8,41.1,82.9,41.4,87.1,36.2z"/>
		</g>
		<path class="st13" d="M81.3,65.6c2-4.6,2-4.6,4-9.1c3.3,4.4,6.5,9.6,10,13.7C95.1,71.5,91.2,65.9,81.3,65.6z"/>
		<g>
			<path class="st14" d="M80.3,90.9c0.7,24.2-28.3,17.1-23-0.5c1.7-5.6,8.4-6.3,11.5-6.6C73.8,83.4,76.2,83,80.3,90.9z"/>
			<path class="st15" d="M65.6,95c0.9,0.8,0.9,0.8,1.8,1.5C66.7,102.2,63.4,99,65.6,95z"/>
			<path class="st15" d="M66.6,87.9c2,1.5,0.3,5.8-3.3,3.5C65,89.7,65,89.7,66.6,87.9z"/>
			<path class="st0" d="M58.6,92.9c2.5,0,4.1,2.6,0.5,2C58.8,94,58.8,94,58.6,92.9z"/>
		</g>
		<g>
			<path class="st9" d="M133.8,70.6c16.5,6.7-5.2,30.7-13.8,19.3c-5.9-7.9,3.3-19.1,7.2-20.3C129.5,69,131.7,69.8,133.8,70.6z"/>
			<path class="st15" d="M122.1,82.8c2.9,0.8,2.9,0.8,5.8,1.5C127.8,85.1,120.1,85.7,122.1,82.8z"/>
			<path class="st16" d="M130.1,76.7c2.8,2,1.8,6.6-0.2,2.5C130,78,130,78,130.1,76.7z"/>
		</g>
		<path class="st17" d="M99.8,90.9c-0.4,1.4-2.2,2.7-2.5,5.1C92.5,96.7,97.1,89.8,99.8,90.9z"/>
		<g>
			<path class="st9" d="M107.8,86.9c3.1,1,4.7,2.4,7.5,5.1c1.6,1.6,1.4,1.9,1.5,2c0.1,1.7-0.6,2.8-1,4.1c-4.3,11.9-25,15.1-28.5,7.1
				c4.9,1,4.9,1,9.8,2c-9-11.9,3,2.4,0.2-11.1c0.3-2.4,2.1-3.7,2.5-5.1c0.5-1.9-1.1-2.4-1-2.5c0.6-1.6,3.4,1.2,3-2.5
				C103.9,85.6,105.8,86.2,107.8,86.9z"/>
			<path class="st16" d="M101.6,98c6.3-1.1-0.4,4-1,4.1C97,102.4,100,98.3,101.6,98z"/>
		</g>
		<g>
			<path class="st9" d="M92.8,86.9c-3.4,2-11.2-0.2-13-3c-6.6-10.5,7.9-23.4,18.5-7.6C98.9,80.1,94.3,86,92.8,86.9z"/>
			<path class="st18" d="M89.1,76.7c1.4,0.8,1.4,0.8,2.8,1.5C91.6,80.5,88.2,79.3,89.1,76.7z"/>
			<path class="st19" d="M84.6,72.7c1.9-0.1-1.2,4.9-1.8,2.5C83.7,73.9,83.7,73.9,84.6,72.7z"/>
		</g>
		<g>
			<path class="st20" d="M98.8,36.2c-0.7,2.1,5.9,2.8,8.5,3c0.2,0,0.3,0,0.5,0c1.6-0.6,2.2,1,2.5,1c0.2,0,0.3,0,0.5,0c1,0,1,0,2,0
				c3.2,1.1,6.4,2.7,9.5,4.1c3.3,1.4,6.6,3.3,10,4.1c0.1,0-0.4,0.2,1,1c3.2,1.8,19.9,11.9,21,12.2c-0.4,10-3.1,16.6-7,22.3
				c-1.7,2.5-5.2,5.6-7.5,8.1c-0.3,0.3-0.7,0.7-1,1c-2.1,2.2-4.8,4.1-7,6.1c-7.3,4.6-14.3,10.4-21.5,15.2c1.7-5.4-10.3-0.3-7.8,1
				c1.4,1,3.5-2.2,4.2,1c-0.5,0.3-1.3,0.9-1.5,2c-4.1,2.3-8.3,5.3-12.5,6.1c3.1-6.5,4.3-6.8,7.2-12.2c-23.8,0.3-30,1.2-53.3-8.1
				c-2.7-1.1-6-0.9-10.2-3c-5.1-2.6-12.9-9.4-18.2-13.2c2.6-5.6,7,2.4,10-1c4,16.1,21.8,13,13-4.1c1-3.8,1-3.8,2-7.6
				c-4,2.3-2.8-2.3-3-2.5c1-1,1.5-3,2.5-4.1c2.7-2.8,2.5-0.6,5.5-6.1c1.6,3.7,2.5-3.4,3.5-5.1c1.8-3.3,3.9-5.7,6-8.1
				c1.8,9.2,11.9,5.7,14.5-6.1c2.6,1.9,4-0.1,6.5,1c-0.6,0.3-1.5-0.3-1.8,0c-0.4,0.4,0.4,1.7-0.8,5.1c-9.4,3.9-3.7,14.9-3.5,16.2
				c0.1,1.2-0.2,2.9,0,4.1c-2.7,5.8-13.6,2.1-4.5,9.1c0.2,2.5,0.2,2.5,0.5,5.1c-3.1,0.3-9.8,1-11.5,6.6c-5.3,17.6,23.7,24.7,23,0.5
				c-0.1-2.4-0.8-4.5-0.5-7.1c1.8,2.8,9.6,5,13,3c0.8,1.5,0.8,1.5,1.5,3c-3.6,2.4-10.4,5.2-7,15.2c3.5,8,24.2,4.8,28.5-7.1
				c0.9,2,0.9,2,1.8,4.1c5.9-6.9-0.4-7.8-0.8-8.1c-0.1-0.1,0.1-0.4-1.5-2c-2.1-6.3-5.1-11.1-8.5-13.7c0.3-4.9,4.1-0.1,5.5-5.6
				c3,0.1,10.1,0.6,9-6.1c1-0.5,2-1.1,3-2c-0.4,5.9,2-1.6,3,5.1c-4,1.2-13.2,12.4-7.2,20.3c8.5,11.4,30.3-12.6,13.8-19.3
				c-0.2-2.3,1.4-1.3,3-3c1.3-1.4,4.6-1.8,1.2-9.1c-6.9-3.7-5.9,1.8-6.2,2c-0.5,0.4-4.1,4.3-4,0c4.8-12.1-14.8-17.1-17-2
				c-0.9,1.4-2.2-0.6-3,0c0.7-6.7,0.9-6.9-1.5-11.2c0.1,0,0.4-2,0.8-2c1.5-0.1,2.4,2,2.5,2c14.8,0.1,1.7-4-4.8-2c-1.1-1-2.9-2-4-2
				c-1.2,0-3.8,1.7-5,3c0.9-3.6,1.8-4.7-1-5.1c-1.8-2.3-0.6-3.2,0.5-6.1C96.5,35.5,97.7,35.8,98.8,36.2z"/>
			<g>
				<g>
					<path class="st21" d="M107.3,39.2c-2.6-0.2-9.2-0.9-8.5-3C100.5,36.7,106.6,34.4,107.3,39.2z"/>
					<path class="st22" d="M128.3,45.3c1.5,0.7,2.7,2.3,4,3c-3.4-0.8-6.7-2.6-10-4.1C122.5,42.8,126.3,44.4,128.3,45.3z"/>
					<path class="st23" d="M110.3,40.2c-0.3,0-0.9-1.6-2.5-1C108,39.2,110.3,35.9,110.3,40.2z"/>
					<path class="st24" d="M112.8,40.2c-1,0-1,0-2,0C110.9,40.3,111.2,39.7,112.8,40.2z"/>
					<g>
						<path class="st25" d="M131.8,99c-8.7,7.9-17.3,14.1-26.5,19.3c0.2-1.1,1-1.7,1.5-2c1.1-0.8,2.4-1.3,3.5-2
							C117.6,109.4,124.5,103.6,131.8,99z"/>
						<path class="st25" d="M138.8,92.9c-1.5,4.4-4.8,4.7-7,6.1C134.1,97,136.7,95.2,138.8,92.9z"/>
					</g>
				</g>
				<g>
					<path class="st26" d="M48.1,87.9c3.5-0.3,12.8,13.5-3,6.1C42.7,91.9,47.3,88,48.1,87.9z"/>
					<path class="st27" d="M136.8,67.6c2.7-5.6-2-6.1-5-7.1c0.3-0.2-0.6-5.7,6.2-2C141.4,65.8,138.1,66.2,136.8,67.6z"/>
					<path class="st28" d="M106.3,47.3c-0.1-0.2-1.4-2-1.5-2c6.5-2,19.5,2.1,4.8,2c-0.1,0-1-2.1-2.5-2
						C106.7,45.3,106.4,47.3,106.3,47.3z"/>
					<path class="st11" d="M110.3,114.2c-1.1,0.8-2.4,1.2-3.5,2c-0.8-3.2-2.9-0.1-4.2-1C100,113.9,112,108.8,110.3,114.2z"/>
					<path class="st11" d="M115.8,98c0.4-1.2,1.1-2.4,1-4.1c0.3,0.4,6.6,1.2,0.8,8.1C116.7,100,116.7,100,115.8,98z"/>
					<path class="st8" d="M55.6,55.4c3-0.3,5,4.6-3.2,5.6C51.9,59.3,54.9,55.5,55.6,55.4z"/>
					<path class="st2" d="M104.8,45.3c0.1,0.1,1.4,1.8,1.5,2c-2.7,1.1-4.1,3.5-4.8,2c-0.8-1.9,1.4-0.3-0.8-6.1
						C102,43.3,103.8,44.3,104.8,45.3z"/>
					<path class="st29" d="M60.3,64.6c-3.8,0.5-3.8,0.5-7.5,1C55.2,64.1,57.8,62,60.3,64.6z"/>
					<path class="st13" d="M68.1,55.4c2.1,0.2,2.4,2.7,0,2C68.1,56.5,68.1,56.5,68.1,55.4z"/>
					<g>
						<path class="st8" d="M61.3,67.6c-3.8-0.9-7.7,0.4-11.5,1c1-1,1.9-2.3,3-3c3.8-0.5,3.8-0.5,7.5-1c1.4-2.3,0.1-3.7-1.2-3
							C58,54.7,63.5,60.6,61.3,67.6z"/>
						<g>
							<path class="st9" d="M61.3,67.6c1.5,0.4,3.4,2.2,5,2.5c-6.6,10.1-13.3,22.3-21,9.1c-1.6-8.1,1.8-7.9,4.5-10.6
								C53.6,68,57.5,66.7,61.3,67.6z"/>
							<path class="st12" d="M49.6,76.7c1.9,0.8,1.9,0.8,3.8,1.5C51.8,80.9,49.5,79.2,49.6,76.7z"/>
							<path class="st30" d="M61.6,71.7c2.8,1.3,1.5,3.9-0.2,0.5C61.5,71.9,61.5,71.9,61.6,71.7z"/>
						</g>
					</g>
				</g>
			</g>
		</g>
		<g>
			<path class="st9" d="M127.8,60.5c-1.1,1.7-2.3,2.8-3.5,4.1c-1,1-2,1.5-3,2c-4.6,2.3-10.9,4.4-10.5-8.1
				C113.1,43.4,132.7,48.4,127.8,60.5z"/>
			<path class="st31" d="M119.1,54.4c0.7-0.1,4.2-0.3,4.2,0.5C114.5,65.2,111,56.1,119.1,54.4z"/>
		</g>
		<g>
			<path class="st32" d="M68.3,38.2c2.1,1.7,1.4,2.9,1.5,3c-4.8-0.3-8.1,3.7-12,8.1c-2.1,2.4-4.2,4.8-6,8.1
				c-1.6,0.2-2.4,3.1-3.5,5.1c-3,5.5-2.8,3.3-5.5,6.1c-1.8-1.5-1.8-1.5-3.5-3c0.1-3.5-2,0-1.5-6.1c1.6-0.3,11.5,5.6,10.2-8.1
				c-4.9,2.5-4.9,2.5-9.8,5.1C40.8,52.3,63.4,40.6,68.3,38.2z"/>
			<path class="st33" d="M51.8,57.5c-1,1.7-1.9,8.8-3.5,5.1C49.4,60.6,50.2,57.7,51.8,57.5z"/>
			<path class="st34" d="M37.8,59.5c-0.2,0-0.3,0-0.5,0c0.1-0.6,0.3-1.5,0.5-2c0-0.1,0.5-1,0.5-1c4.9-2.5,4.9-2.5,9.8-5.1
				C49.3,65.1,39.4,59.2,37.8,59.5z"/>
			<path class="st6" d="M49.6,52.4c2.6-0.4,2.3,1.9,0,3C49.6,53.9,49.6,53.9,49.6,52.4z"/>
		</g>
		<g>
			<path class="st9" d="M85.3,56.5c-2,4.6-2,4.6-4,9.1c-1.5,0-4.7,2.6-8.5,0c-0.2-1.3-5.9-12.3,3.5-16.2c2.9-1.2,7.8-1.7,9,4.6
				C79.6,54.1,83.7,54.3,85.3,56.5z"/>
			<path class="st17" d="M75.6,54.4c3.4,1.6,2,5.4,0.5,3C75.8,55.9,75.8,55.9,75.6,54.4z"/>
		</g>
		<g>
			<path class="st9" d="M69.8,41.3c0.1,0.1,2.1,1.7,2.5,2C69.8,55,59.6,58.6,57.8,49.4C61.7,44.9,65,41,69.8,41.3z"/>
			<path class="st15" d="M66.6,47.3c0.4-0.1,1.6-0.3,1.8,0.5C61.2,54.3,61.6,48.7,66.6,47.3z"/>
		</g>
	</g>
</g>
</svg>
