<svg viewBox="0 0 1920 1080" xmlns="http://www.w3.org/2000/svg" xmlns:xlink="http://www.w3.org/1999/xlink"><linearGradient id="a" gradientUnits="userSpaceOnUse" x1="959.9" x2="960.1" y1="9.4" y2="677.4"><stop offset="0" stop-color="#79bac0"/><stop offset=".6" stop-color="#e5e3a1"/><stop offset=".7" stop-color="#efe69f"/><stop offset="1" stop-color="#fcf4d1"/></linearGradient><linearGradient id="b" gradientUnits="userSpaceOnUse" x1="1103.3" x2="573.2" y1="961.7" y2="1096.4"><stop offset="0" stop-color="#a8b045"/><stop offset="1" stop-color="#839c41"/></linearGradient><linearGradient id="c" gradientUnits="userSpaceOnUse" x1="1848" x2="1810.5" y1="770.2" y2="935.4"><stop offset="0" stop-color="#a08a30"/><stop offset="1" stop-color="#7f8332"/></linearGradient><linearGradient id="d" gradientUnits="userSpaceOnUse" x1="908.6" x2="999.4" y1="454.6" y2="739.6"><stop offset="0" stop-color="#fec96c"/><stop offset="1" stop-color="#fce7af"/></linearGradient><linearGradient id="e" gradientUnits="userSpaceOnUse" x1="1024.6" x2="739.4" y1="640.2" y2="990.9"><stop offset="0" stop-color="#e7c452"/><stop offset="1" stop-color="#b9ac46"/></linearGradient><linearGradient id="f" gradientUnits="userSpaceOnUse" x1="553.1" x2="217" y1="794.4" y2="958.4"><stop offset="0" stop-color="#d3b541"/><stop offset="1" stop-color="#cb9433"/></linearGradient><path d="m0 673.6v-673.6h1920v403.6c-7.3 4.2-16.5-2.6-23.6-1.4-10 1.7-16 19-18.6 19.7-11.5 3.1-41.1-7.6-50.7 14.8l92.9.7v230.6l-22.9 5.6c.4-6-2.2-19.7-2.9-26.7-3.2-36.8-11.6-74.5-22.1-109.7-13 42.3-36.9 99.2-33.6 143.4.1 1.4-.2 2.9 0 4.2l-27.1 2.8c-1.2-6.8-11.4-48.1-14.3-51.3-5.5-6-14.6 3.6-18.6 4.9s-7.7 3-11.4 4.2-6.5.8-8.6 1.4c-8.1 2.5-16.3 6-24.3 8.4-32.7 10.1-67 17.7-98.6 30.9-.6.3-2.3-.3-2.9 0-1.1.5-1.8.9-2.9 1.4-1.7.9-5 1.1-7.1 2.8l-78.6 21.1c-6.4-4.2-3.8 2-8.6-7 59.8-23.8 120.5-45.3 181.4-66.1 16.6-5.7 33.3-11.4 50-16.9s6.6-1.7 10-2.8c6.3-2.1 12.1-3.2 18.6-5.6s16.9-3.3 17.1-7.7c-60.6-99.5-174.8-168.3-295-162.4-11.3.5-67.8 9.4-74.3 15.5s-1.3 7.6-2.9 8.4-.1-4.3-5.7-4.2c-9.1 0-53.2 25.7-62.9 32.3-41.4 28.3-84.6 76.9-105 122.3-1.1 2.4-1.9 4.6-2.9 7-8.3 20.7-12.9 39.8-16.4 61.9-2.9 2.5-49.8 8.3-57.9 9.8 2.8-6.8 2-18.8 1.4-26-11.2-132.4-98.4-245.3-243.6-235.5-109.6 7.4-193.5 98.7-203.6 203.9-32 7-63.6 18-96.4 23.9-155.8 28.1-310.5 21.4-467.9 19.7-4.7-30-13.1-60-10-90.7-4.3.3-3.8 13-4.3 16.2-1.3 9-2.2 17.6-2.9 26.7-5 16.9-13.1 35-17.1 52l-33.6-2.8c-3.6 1.6 1.2 19.6 2.1 23.9l-2.9 2.8c-2.9-19-5.7-38-8.6-57-2.1-1.2-2.7 4.7-2.9 4.9s-.4 0-1.4 1.4c-3.7 5.7-9.2 15-11.4 21.1l-87.1-7z" fill="url(#a)"/><path d="m1055.7 998.4c-144.5 19.4-294.5 40.5-439.3 54.8-104.8 10.4-210.7 11.7-315 26.7h-301.4v-132.2c108.1 9.9 216.8 2.9 325 5.6 175.6 4.4 359.3 29.8 534.3 28.1 57.4-.5 116.7-9.6 174.3-11.2 4.8 11.2 13.7 19.6 22.1 28.1z" fill="#aeaf41"/><path d="m1701.4 933.8v1.4l-12.1 14.1c20.1-1.2 40.5-1.2 60.7-1.4 56.7-.5 113.2 1.6 170 1.4v130.8h-882.9l372.9-104.1c14.8 5.7 28.2 15.8 33.6-4.2 4.1 2.6-1.1 9 .7 12s48.9 10.1 55 10.5c44.8 3.1 97.8-4.7 137.9-23.2.2-.7-3.8-8.9-4.3-10.5s-2.3-7.2-2.9-8.4c0-5.8 2.2 0 4.3 0 .7 1.5 2.5 8.8 2.9 9.1 7.3 7.9 53.4-24.7 64.3-27.4z" fill="#71933d"/><path d="m1337.1 936.6c2.4 0 7.4 1 8.6-1.4 7.4 6.1 16.7 10.7 22.9 18.3-105 10.7-208.5 31-312.9 45-8.5-8.5-17.4-17-22.1-28.1-57.6 1.7-116.9 10.7-174.3 11.2-175 1.7-358.7-23.8-534.3-28.1-108.2-2.7-216.9 4.3-325-5.6v-29.5c392.3-9.9 785 23.3 1179.3 28.1 54.3.7 108.6-.5 162.9 0l-5-9.8z" fill="#e2cb51"/><path d="m1400 971.7c-203.4 27.7-404.6 68.2-605.7 108.3h-492.9c104.3-15.1 210.2-16.3 315-26.7 144.7-14.4 294.8-35.5 439.3-54.8 104.4-14 207.9-34.3 312.9-45 11.5 4.8 20.1 13 31.4 18.3z" fill="url(#b)"/><path d="m1871.4 772c16.1-.1 32.5 2.5 48.6 0v163.1h-218.6v-1.4c38.9-33.2 89.6-79.7 90-133.6 0-.9 0-1.9 0-2.8 13.2 6.2 16.6-14.2 18.6-23.9 17.1 1.4 34.5-1.3 51.4-1.4z" fill="url(#c)"/><path d="m304.3 898.6c.4 6.9 5.4 3.6 11.4 4.2 11.7 1.3 22.6 1.1 34.3 1.4 238.2 6.5 476.1 19.6 714.3 26.7 90.8 2.7 182 6.1 272.9 5.6l5 9.8c-54.3-.5-108.6.7-162.9 0-394.3-4.8-786.9-38-1179.3-28.1v-12.7c15.3 1.2 30.6-1 45.7-1.4h7.1c14.2-.4 28.7-1.1 42.9-1.4s6.7 0 10 0c18.5-.3 37.3-1.1 55.7-1.4h8.6c44.5-.9 90.5 6.4 134.3-2.8z" fill="#f8e67b"/><path d="m1400 971.7c2.1 1 7.8 3.4 10 4.2l-372.9 104.1h-242.9c201.1-40.1 402.3-80.5 605.7-108.3z" fill="#71933d"/><path d="m87.1 680.6c-9.3 25.1-19.2 79.5-15.7 105.5l-71.4-4.2v-108.3z" fill="#ffab74"/><path d="m77.1 803c2.6 4.4 12.9 15.6 18.6 12.7.4 11.7 1.3 23.3 1.4 35.2l-47.1-2.8c-.5-8.4.9-17-.7-25.3-4.2 6.8-1.7 17.6-2.1 25.3l-47.1-7v-43.6l77.1 5.6z" fill="#e2cb51"/><path d="m1920 772c-16.1 2.5-32.5-.1-48.6 0 2-14.6-3.9-42.6 2.9-53.4 10-16.1 21.2-19.1 22.9-45l22.9-5.6v104.1z" fill="#f18c54"/><path d="m47.1 848c-1 18.7-2.2 37.4-1.4 56.2-15.1.4-30.5 2.6-45.7 1.4v-64.7l47.1 7z" fill="#d09133"/><path d="m1920 403.6v33.8l-92.9-.7c9.6-22.4 39.3-11.7 50.7-14.8s8.6-18 18.6-19.7c7.1-1.2 16.2 5.6 23.6 1.4z" fill="#ffeedb"/><path d="m1920 938v11.2c-56.8.2-113.3-1.9-170-1.4l2.1-7z" fill="#f8e67b"/><path d="m1920 935.2v2.8l-167.9 2.8-2.1 7c-20.3.2-40.6.2-60.7 1.4l12.1-14.1h218.6z" fill="#e2cb51"/><path d="m71.4 786.1c.4 2.8 4.3 14.4 5.7 16.9l-77.1-5.6v-15.5z" fill="#f8e67b"/><path d="m797.1 631.4c37.2 4 98.8 33.6 137.9 45 60.8 17.7 122.6 31.5 186.4 21.1l2.9.7c.3 7.3-.6 16.9 1.4 23.9.4 1.2 2.8.6 2.9.7 3 8.1 6.7 16.3 14.3 21.1-3.7 6.8-5.4-3.3-9.3-4.2s-8.1 1.2-10 1.4c-49.5 6.2-120 35-172.9 46.4-39.6 8.5-80.2 15.6-120.7 18.3-.7-14-1.6-28.2-2.1-42.2-1.3 14.4-4.3 29.2-5 43.6-127.3 7.8-252.2-35.1-375-61.9-.6 12.4.4 23.9-.7 36.6-.9-12.7-2.9-25.4-4.3-38-1.9-17.2-2.8-34.4-7.1-51.3-3.8 8.2-4 17.3-4.3 26-4.6 5-5.6 13.4-7.1 19.7l-236.4-46.4 2.1 33.8c-1.8-13.7-7.7-29-10-43.6 157.4 1.7 312.1 8.4 467.9-19.7 32.8-5.9 64.4-16.9 96.4-23.9 15.9-3.5 37.1-8.7 52.9-7z" fill="#febe94"/><path d="m1190 696.1c-8.4 1.7-16.8 4.7-25.7 4.9.2 13.9.9 42.9-15.7 45 .6-.7 1.6-1 1.4-2.1 2.5-1.2 7.7-7.1 8.6-9.1 8.1-19.9.3-73.3-2.9-96.3s-4.7-35.1-9.3-52c-1.9 14-3 28.2-5 42.2-4.6 31.4-15.1 62.8-12.9 94.2 0-.2-2.5.5-2.9-.7-2.1-7-1.1-16.6-1.4-23.9l-2.9-.7c3.6-2 4.9-5.6 5.7-9.1 20.2-85.5-59.8-177.6-146.4-184.9-87.9-7.5-158.2 47.6-183.6 128-15.8-1.7-37 3.6-52.9 7 10.1-105.2 94-196.5 203.6-203.9 145.2-9.8 232.4 103.1 243.6 235.5.6 7.2 1.3 19.2-1.4 26z" fill="url(#d)"/><path d="m1281.4 627.2c-38.8 100.3-13.4 217.6 67.9 289.7 43.4 38.5 95.1 58.8 151.4 63.3 44.6 3.5 91-2.9 132.1-19.7.5 1.7 4.4 9.8 4.3 10.5-40.1 18.5-93 26.3-137.9 23.2s-53.5-8.2-55-10.5 3.4-9.4-.7-12c-5.4 20.1-18.7 9.9-33.6 4.2-2.2-.8-7.9-3.2-10-4.2-11.3-5.3-20-13.5-31.4-18.3-6.2-7.6-15.4-12.2-22.9-18.3-19-15.5-39.3-37.2-52.9-57.7-14.4-21.8-25.8-47.2-34.3-71.7-2.6-7.6-3.3-16.3-5.7-23.9s-1.4-7.7-3.6-11.2c-33.9 4.4-68.2 7.1-102.1 11.2l-2.1-35.2-2.1 36.6c-104.4 12.9-208.5 29-312.9 42.2-.2-6.5.3-13.2 0-19.7 40.5-2.7 81.1-9.8 120.7-18.3 52.8-11.4 123.3-40.2 172.9-46.4s9.5-1.5 10-1.4c3.9.9 5.6 11 9.3 4.2s1.3-5.9 1.4-7c4.8 3.4.5-3.2 5.7-2.8-.1 3-.3 6.9 0 9.8s-.8 1.4-1.4 2.1c16.6-2.1 15.9-31.1 15.7-45 8.9-.2 17.3-3.3 25.7-4.9s54.9-7.3 57.9-9.8c3.5-22 8.1-41.2 16.4-61.9 5.6.1 11.8 1.1 17.1 2.8z" fill="#f18c54"/><path d="m1515 75.9c31-.3 43.6 21.3 44.3 49.2 35.1-27.1 27.5 12.3 30 14.1 5 3.5 60.2-9.7 47.1 25.3l-275-.7c35.6 3 60.5-50.6 92.1-30.2 6.2-32.1 25.6-57.3 61.4-57.7z" fill="#ffeedb"/><path d="m1894.3 646.9c-10.1 3.3-5 23.7-18.6 26.7 3-36.5 5.4-76.4 2.9-110.4-.3-3.8-4-11.3-7.1-14.1-6.9 44.3-9.4 89.6-4.3 134.3-.1.1.2 1.7-1.4 1.4-10.2 4-23.9-16.3-27.1-4.2-3.4-44.3 20.6-101.1 33.6-143.4 10.5 35.2 18.9 72.8 22.1 109.7z" fill="#9a8e34"/><path d="m145.7 686.2c-6.7 27.7-15.5 78.6-7.1 105.5l-14.3-.7c6.6-30.6-4.1-55.3-10-83.7-.9-4.3-5.7-22.3-2.1-23.9l33.6 2.8z" fill="#ffab74"/><path d="m1894.3 646.9c.6 7 3.2 20.7 2.9 26.7-1.6 25.9-12.8 28.9-22.9 45-2.2-11.1-1-25.3 0-36.6.2-2.1 1.2-5.2 1.4-8.4 13.6-3 8.5-23.4 18.6-26.7z" fill="#745a16"/><path d="m138.6 791.7c1.5 4.9 5.8 9.1 7.1 14.1-8.9-2.4-22.1 2.7-31.4-1.4 2.7-3.8 6.5-11.8 7.1-16.2 2.1-13.9-7.3-60.4-10-78l2.9-2.8c5.9 28.4 16.6 53 10 83.7l14.3.7z" fill="#f8e67b"/><path d="m1865.7 684.8c3 11.3-2 22.7-2.9 33.8-6.3-.3-14.1-7.7-17.1-12.7s-6.5-16.3-7.1-21.1.1-2.8 0-4.2c3.2-12.1 17 8.2 27.1 4.2z" fill="#745a16"/><path d="m1838.6 684.8c.6 4.8 4.6 17.1 7.1 21.1-5.1 6.2-23.7 2.2-28.6 4.2-7.6-.2-4.9-18-5.7-22.5l27.1-2.8z" fill="#ffab74"/><path d="m1345.7 935.2c-1.2 2.5-6.2 1.4-8.6 1.4-90.8.5-182.1-2.9-272.9-5.6l228.6-53.4c13.5 20.4 33.8 42.1 52.9 57.7z" fill="#aeaf41"/><path d="m1862.9 718.6c-1.3 16.4 1.3 36.5-1.4 53.4-16.9 0-34.4 2.9-51.4 1.4 2.2-11 1.6-61 7.1-63.3s23.5 1.9 28.6-4.2c3.1 4.9 10.9 12.4 17.1 12.7z" fill="#f18c54"/><path d="m1874.3 682c-1 11.3-2.2 25.5 0 36.6-6.8 10.9-.9 38.8-2.9 53.4-3.3 0-6.7 0-10 0 2.7-17 0-37.1 1.4-53.4.9-11 5.8-22.4 2.9-33.8 1.6.3 1.3-1.3 1.4-1.4.2-.3 5.8-.7 7.1-1.4z" fill="#7b240b"/><path d="m1258.6 805.8c8.5 24.5 19.9 49.9 34.3 71.7l-228.6 53.4c-238.1-7.2-476.1-20.2-714.3-26.7-.6-4.2 3.8-2.7 6.4-2.8 63.6-2.1 128-4.2 191.4-8.4 238.4-16.1 474.1-56.9 710.7-87.2z" fill="url(#e)"/><path d="m431.4 821.2c1.9.1 4.1 0 4.3 0 89.3 6 178.9 14.3 267.9 22.5l-399.3 54.8c-43.8 9.3-89.8 2-134.3 2.8-2.6-13.8-1.4-28.3-1.4-42.2l148.6-43.6c38.1 2.2 76.2 3.1 114.3 5.6z" fill="url(#f)"/><path d="m1252.9 781.9c2.4 7.6 3.1 16.3 5.7 23.9-236.6 30.3-472.3 71.1-710.7 87.2-63.5 4.3-127.8 6.3-191.4 8.4-2.6 0-7.1-1.4-6.4 2.8-11.7-.3-22.6-.1-34.3-1.4z" fill="#edc255"/><path d="m1252.9 781.9-937.1 120.9c-6-.7-11.1 2.7-11.4-4.2l399.3-54.8c-88.9-8.2-178.6-16.5-267.9-22.5l2.1-8.4 287.1 26.7c32.9-2.5 65.3-10 97.9-14.1s4.8.3 7.1 0c104.4-13.2 208.5-29.2 312.9-42.2 3.1-.4 4.1-1.4 4.3-1.4 33.9-4.2 68.2-6.9 102.1-11.2 2.2 3.5 2.3 7.4 3.6 11.2z" fill="#f8e67b"/><path d="m97.1 850.8c.1 17.3.7 34.8-1.4 52-14.2.3-28.6 1-42.9 1.4-.6-18.7-1.8-37.5-2.9-56.2l47.1 2.8z" fill="#d09133"/><path d="m162.9 862c0 13.1.7 26.4-1.4 39.4-18.4.3-37.3 1.1-55.7 1.4 1.3-11.7-1.1-23.6-1.4-35.2 21.2 2.5 38.3.2 58.6-5.6z" fill="#d09133"/><path d="m50 848c1 18.7 2.3 37.5 2.9 56.2-2.4 0-4.8 0-7.1 0-.8-18.8.4-37.5 1.4-56.2.4-7.8-2.1-18.6 2.1-25.3 1.6 8.3.2 16.9.7 25.3z" fill="#bb3e1c"/><path d="m1121.4 697.5c-63.9 10.4-125.6-3.4-186.4-21.1-39.1-11.4-100.6-41-137.9-45 25.3-80.4 95.7-135.4 183.6-128 86.7 7.4 166.6 99.4 146.4 184.9-.8 3.5-2.1 7.2-5.7 9.1z" fill="#fff7df"/><path d="m424.3 738.3c-1.2 4.9-2.1 10.4-2.9 15.5-2.2 14.9-4.9 26.4-1.4 42.2.5 2.3 2.5.9 2.9 2.1 1.9 6.2-4.5 14.3 8.6 13.4 0 .2 1.8.1 1.4 4.2-38.3-7.6-78.2-7.5-117.1-11.2l-2.1-38c-3.5 9.9-5.1 26.3-3.6 36.6l-121.4-7c4.9-16.8 3.8-52.5 1.4-70.3l-2.1-33.8 236.4 46.4z" fill="#ffab74"/><path d="m822.9 807.2c-.3 5.5 1.8 12.5 0 18.3-32.6 4.1-65 11.6-97.9 14.1l-287.1-26.7-2.1 8.4c-.2 0-2.4.1-4.3 0-1-2.6 1.3-4.3 1.4-5.6.3-4.1-1.4-4-1.4-4.2-2.4-13-8.7-13.5 7.1-19.7-.9 6.4-2.3 12.4-1.4 19 9.2-2.1 9.3-20.9 10-28.8 1.2-12.6.1-24.1.7-36.6 122.8 26.8 247.7 69.7 375 61.9z" fill="#f18c54"/><path d="m1144.3 736.9c-.1 1.1-1.3 6.7-1.4 7-7.6-4.8-11.3-13-14.3-21.1-2.3-31.4 8.3-62.9 12.9-94.2 3.7 9.7 4.1 27.5 4.3 38.7.4 19.6.9 50.9-1.4 69.6z" fill="#caab43"/><path d="m442.9 743.9c.6 17.8-2 31-4.3 47.8-15.8 6.2-9.6 6.7-7.1 19.7-13.1 1-6.7-7.2-8.6-13.4s-2.4.2-2.9-2.1c2-4.4 1.4-10.7 1.4-15.5 4.8 1.9 7.1-2.9 10 3.5 3-21.8-.6-43.6 0-65.4s.5-17.8 4.3-26c4.3 16.9 5.2 34.1 7.1 51.3z" fill="#d09133"/><path d="m421.4 780.5c0-8.9 0-17.8 0-26.7.7-5.1 1.7-10.5 2.9-15.5s2.5-14.7 7.1-19.7c-.6 21.8 3 43.5 0 65.4-2.9-6.4-5.2-1.6-10-3.5z" fill="#caab43"/><path d="m447.1 781.9c-.7 7.9-.8 26.7-10 28.8-.8-6.5.6-12.6 1.4-19 2.3-16.8 4.9-30 4.3-47.8 1.4 12.6 3.4 25.3 4.3 38z" fill="#ad9030"/><path d="m830 805.8c.3 6.5-.2 13.2 0 19.7-2.3.3-4.8-.3-7.1 0 1.8-5.8-.3-12.8 0-18.3.7-14.4 3.7-29.2 5-43.6.5 14 1.4 28.2 2.1 42.2z" fill="#bb3e1c"/><path d="m1155.7 638.4c-3.2 31.6-4.4 63.9-5.7 95.6-5.2-.4-.9 6.3-5.7 2.8 2.4-18.7 1.8-50 1.4-69.6s-.5-28.9-4.3-38.7c2-14 3.1-28.1 5-42.2 4.6 16.9 6.9 34.7 9.3 52z" fill="#d6a244"/><path d="m1150 743.9c-.3-2.9-.1-6.8 0-9.8 1.3-31.7 2.5-64 5.7-95.6 3.2 23.1 10.9 76.4 2.9 96.3-.8 2.1-6.1 7.9-8.6 9.1z" fill="#d6a244"/><path d="m1147.1 781.9c-.2 0-1.2 1-4.3 1.4l2.1-36.6 2.1 35.2z" fill="#ea5229"/><path d="m145.7 805.8c3.6 1 11 9.8 17.1 9.8-.3 15.4 0 31 0 46.4-20.3 5.8-37.4 8.1-58.6 5.6-.5-18.2.5-36.7 0-54.8 2.2-2.1 8.6-6.5 10-8.4 9.3 4.1 22.6-1 31.4 1.4z" fill="#e2cb51"/><path d="m1875.7 673.6c-.3 3.3-1.2 6.3-1.4 8.4-1.4.7-6.9 1.1-7.1 1.4-5.1-44.7-2.6-90 4.3-134.3 3.1 2.8 6.9 10.3 7.1 14.1 2.6 34 .2 73.9-2.9 110.4z" fill="#95742a"/><path d="m317.1 815.6-148.6 43.6c0-14.6 1.1-29.1 1.4-43.6 5.9.3 11.4-5.2 14.3-9.8 44.1 4.4 88.6 7.3 132.9 9.8z" fill="#e2cb51"/><path d="m310 803c.9 6.5 1.2 9.4 5.7 1.4 38.9 3.7 78.9 3.7 117.1 11.2-.1 1.4-2.4 3-1.4 5.6-38.1-2.6-76.2-3.4-114.3-5.6-44.2-2.5-88.8-5.5-132.9-9.8.3-.5 4.1-9.3 4.3-9.8l121.4 7z" fill="#f8e67b"/><path d="m315.7 804.4c-4.5 8-4.8 5.1-5.7-1.4-1.5-10.3 0-26.7 3.6-36.6z" fill="#cb5024"/><path d="m421.4 780.5c0 4.8.6 11.1-1.4 15.5-3.5-15.8-.8-27.3 1.4-42.2z" fill="#fdd67b"/><path d="m689.3 85.8c38.6-3.2 64.4 23.9 55 61.2l2.1 3.5c12.5-3.2 25.6 2.9 37.1 7s10.7 8.3 11.4 8.4c1.5.2 23.9-8 30-8.4 21.4-1.7 54.4 3.9 31.4 29.5l-505 .7c13.6-3.8 29.9-6 42.1-13.4s35.7-40.8 47.1-42.2c19.4-2.4 23.9 28.1 34.3 30.9s36.6-8.3 50-4.2c5.8-17.7 29.6-71.2 52.9-66.1 8.7 1.9 33 30.7 38.6 39.4 13.5-24 44.9-44.1 72.9-46.4z" fill="#ffeedb"/><path d="m335 320.6c35.9-3.1 44 35.5 50 61.9 23.1-6.9 65.6-11.3 55.7 25.3l-276.4.7c36.7-20.9 59.4-47.1 103.6-20.4 12.4-23.5 37-64.9 67.1-67.5z" fill="#ffeedb"/><path d="m165.7 741.1c-.1 24.7-2.4 49.7-2.9 74.5-6.1 0-13.5-8.9-17.1-9.8-1.3-5-5.6-9.2-7.1-14.1-8.3-26.9.5-77.8 7.1-105.5 4.1-17 12.2-35.1 17.1-52-2.6 38.5 3 70 2.9 106.9z" fill="#ad9030"/><path d="m180 682c2.3 14.6 8.2 29.9 10 43.6s3.4 53.5-1.4 70.3-4 9.4-4.3 9.8c-2.9 4.6-8.4 10.1-14.3 9.8.6-24.4 1.3-48.7 1.4-73.1s2.1-70.9 0-100.5c-.7-10.1-3.5-24.3-5.7-34.5.5-3.2 0-15.9 4.3-16.2-3.1 30.7 5.3 60.7 10 90.7z" fill="#af832d"/><path d="m94.3 795.9c.2 6.5 1.2 13.1 1.4 19.7-5.6 3-16-8.3-18.6-12.7s-5.3-14.1-5.7-16.9c-3.5-25.9 6.4-80.4 15.7-105.5 2.3-6.1 7.8-15.4 11.4-21.1-7.6 45.3-5.4 90.9-4.3 136.4z" fill="#ad9030"/><path d="m111.4 710.2c2.7 17.7 12.1 64.1 10 78s-4.5 12.4-7.1 16.2-7.8 6.3-10 8.4c-.1-5.3-1.3-10.9-1.4-16.9-.7-37.3 4.7-98.4 0-131.5-.4-3.1-3.3-3.2-2.9-6.3.2-.2.7-6.1 2.9-4.9 2.9 19 5.6 38 8.6 57z" fill="#af832d"/><path d="m102.9 795.9h-8.6c-1.1-45.5-3.3-91.1 4.3-136.4 1-1.5 1.4-1.3 1.4-1.4-.5 3.1 2.4 3.3 2.9 6.3 4.7 33-.7 94.1 0 131.5z" fill="#bf5e29"/><path d="m171.4 742.5-5.7-1.4c.2-36.8-5.5-68.4-2.9-106.9.6-9.1 1.6-17.7 2.9-26.7 2.2 10.1 5 24.3 5.7 34.5 2.1 29.7.2 67.7 0 100.5z" fill="#bc7e31"/><path d="m171.4 742.5c-.1 24.4-.9 48.8-1.4 73.1-.3 14.5-1.4 29-1.4 43.6s-1.2 28.4 1.4 42.2c-2.9 0-5.8 0-8.6 0 2.1-13 1.3-26.3 1.4-39.4 0-15.4-.3-31 0-46.4.4-24.8 2.7-49.8 2.9-74.5z" fill="#cb5024"/><path d="m102.9 795.9c.1 6 1.3 11.6 1.4 16.9.5 18.1-.5 36.6 0 54.8.3 11.6 2.7 23.4 1.4 35.2-3.3 0-6.7 0-10 0 2.1-17.2 1.6-34.7 1.4-52 0-11.8-1-23.5-1.4-35.2s-1.3-13.2-1.4-19.7z" fill="#bb3e1c"/><path d="m1777.1 618.8c-3.4 1.1-6.8 1.8-10 2.8-56.5-99.6-182.6-162.4-297.9-132.2-6.9 1.8-14.3 1.7-13.6 9.8 0 2.1-1.8 1.1-2.9 1.4-63.9 16.2-109.5 69.3-141.4 122.3-3.1 5.1-8.9 6.8-5.7 12.7-7.2 2.7-15.8 38.4-17.1 47.1-17.7 111.5 49.1 235.7 162.9 263.7s4-.4 5.7 0c58.9 13.4 106 17.2 162.9-8.4 5.2.6 5.8 7 7.1 9.8-81.9 37.2-191.7 23.8-260.7-32.3-82.8-67.4-112.5-184.5-73.6-283.4-.5-1.6-9.2-4.2-11.4-4.9-5.3-1.8-11.5-2.7-17.1-2.8 1-2.4 1.8-4.6 2.9-7 8.2-.5 12.7 7.6 18.6 2.8-.7 3.8 9.1 9 10.7 8.4 27.1-59.4 73.7-103.9 132.9-132.2s17.9-4.9 18.6-5.6c1.7-1.8-3.3-6.3 1.4-8.4s35.1-7.8 40-8.4c114.8-14.6 236 42.4 287.9 144.8z" fill="#ea5229"/><path d="m1795.7 613.1c-.9-2.9-5.2-.3-7.1-2.1-3.4-3.1-17-28.2-22.9-35.2-78.6-94.7-199.3-135.3-320.7-107.6-3.6.8-1.8 7.7-7.1 11.2-6.3 4.2-24.3 8.9-32.9 14.1-40.7 24.8-75 57.6-102.1 96.3-4.3 6.2-13.2 27-17.1 30.2-5.9 4.8-10.4-3.3-18.6-2.8 20.4-45.5 63.6-94 105-122.3 9.6-6.6 53.7-32.3 62.9-32.3s5.4 4.4 5.7 4.2c1.6-.8-.8-5 2.9-8.4 6.5-6.1 63-14.9 74.3-15.5 120.2-5.9 234.4 62.9 295 162.4-.3 4.4-12.8 6.1-17.1 7.7z" fill="#f89e4d"/><path d="m1767.1 621.6c-16.7 5.5-33.4 11.2-50 16.9 3.7-24-14.7-46.9-30-64-28.7-32.1-81.9-68.2-126.4-69.6s-5.2.7-6.4 2.8c-7.6-2.2-18-2.1-25.7 0-26.2-.4-61-3.8-55.7 32.3-3 .5-4.7-2.8-5.7-4.9s-11.3-34-11.4-35.9c-.7-8.2 6.7-8 13.6-9.8 115.3-30.2 241.4 32.6 297.9 132.2z" fill="#fcb541"/><path d="m1795.7 613.1c-6.5 2.4-12.3 3.5-18.6 5.6-51.8-102.4-173.1-159.4-287.9-144.8-4.9.6-37 7.1-40 8.4-4.7 2.2.3 6.6-1.4 8.4s-15.6 4.2-18.6 5.6c-59.1 28.3-105.7 72.8-132.9 132.2-1.6.6-11.4-4.6-10.7-8.4 4-3.2 12.8-24.1 17.1-30.2 27.1-38.7 61.5-71.6 102.1-96.3s26.6-9.9 32.9-14.1c5.3-3.6 3.5-10.4 7.1-11.2 121.4-27.7 242.1 12.9 320.7 107.6 5.8 7 19.5 32.1 22.9 35.2s6.3-.8 7.1 2.1z" fill="#f18c54"/><path d="m1811.4 687.7c.8 4.5-1.8 22.3 5.7 22.5-5.6 2.3-4.9 52.3-7.1 63.3s-5.4 30.1-18.6 23.9c0-1.3-2.9-5.3-2.9-5.6 0-8.5 6.6-25.9 7.1-37.3 1.8-36.9-.8-79.7-17.1-113.2 3.9-1.3 13.1-10.9 18.6-4.9 2.9 3.2 13.1 44.5 14.3 51.3z" fill="#f89e4d"/><path d="m1770 784.7c-6-1.7-15.1-3.3-22.9-5.6 12.2-41.6 16.2-88.1-12.9-123.8 8-2.5 16.2-5.9 24.3-8.4 14.7 44.6 20.9 91.5 11.4 137.8z" fill="#fcb541"/><path d="m1778.6 641.2c16.3 33.5 18.9 76.3 17.1 113.2-.6 11.4-7.2 28.8-7.1 37.3-3.9 1.5-9.9-3.7-11.4-4.2 13.3-45.3 9.1-99-10-142 3.7-1.2 7.6-2.9 11.4-4.2z" fill="#e97433"/><path d="m1767.1 645.5c19.1 43.1 23.3 96.7 10 142-2.5-.8-6.7-2.7-7.1-2.8 9.5-46.3 3.2-93.2-11.4-137.8 2.1-.7 6.5-.7 8.6-1.4z" fill="#ea5229"/><path d="m1632.9 686.2c8 8.7-5.5 26.6-14.3 29.5s.2 1.7-1.4 1.4c-8.5-14.1 10.6-17.1 12.9-29.5 1-.5 1.7-.9 2.9-1.4z" fill="#e2cb51"/><path d="m1630 687.7c-2.3 12.4-21.4 15.4-12.9 29.5-13-3-.5-21.7 5.7-26.7s5.4-1.9 7.1-2.8z" fill="#71933d"/><path d="m1627.1 947.8c.7 1.5 2.7 3.8 2.9 4.2.5 1.2 2.3 6.7 2.9 8.4-41.2 16.8-87.5 23.2-132.1 19.7-56.3-4.5-108.1-24.8-151.4-63.3-81.2-72.1-106.6-189.3-67.9-289.7 2.2.7 10.9 3.3 11.4 4.9-38.9 98.8-9.2 215.9 73.6 283.4 69 56.2 178.8 69.5 260.7 32.3z" fill="#e97433"/><path d="m1787.1 797.3c1.8 1.7 1.4 3.3 4.3 2.8-.4 53.9-51.1 100.4-90 133.6-10.9 2.7-57 35.4-64.3 27.4s-2.1-7.6-2.9-9.1c9.4-.2 43.2-20.5 52.1-26.7 44.4-31.1 77.5-78.2 93.6-129.4 2.5.7 4.3 3.7 7.1 1.4z" fill="#f89e4d"/><g fill="#fcb541"><path d="m1321.4 638.4c-13.5 34.6-18.5 70.5-15.7 107.6 6.5 87.2 70 152.1 148.6 184.9-1.3 4.3-2.7 11-2.9 15.5-113.7-28-180.5-152.2-162.9-263.7 1.4-8.7 9.9-44.4 17.1-47.1s8.8 1.9 15.7 2.8z"/><path d="m1452.9 500.6c1.6 8.9 5.5 17 8.6 25.3-56.2 17.1-112.6 51.3-135.7 106.9-5.8-2.3-16.2-1.8-14.3-9.8 31.9-53 77.5-106.1 141.4-122.3z"/><path d="m1620 938c-56.9 25.7-104 21.9-162.9 8.4-.2-2.4.7-4.8 1.4-7 24.9 1.3 54.7 2.5 79.3 0 1.2-.1.6-2.8.7-2.8 3.9-.4 7.6-.8 11.4-1.4 13-1.9 52.2-3.8 55.7-19 2.1-9.4-2.8-17.9-2.9-26 2.5-2.8 5.4 2.7 5.7 3.5 2.3 5.3 14.1 41.4 11.4 44.3z"/><path d="m1754.3 790.3c-14.7 43.6-39.8 86.2-77.9 113.9-12.4 9-26.3 13.8-39.3 21.1-14.9 3.3-10.5-5.4-14.3-15.5 12.1-2.8 23.8-9.2 34.3-15.5 39.6-23.8 76-56.7 82.9-104.1 1.2-1.6 1.8-3.9 2.9-5.6 4.6 1.3 10.8 5.5 11.4 5.6z"/></g><path d="m1787.1 797.3c-2.9 2.3-4.7-.7-7.1-1.4s-14.5-4.6-15.7-3.5c-13.3 53-50.6 106-99.3 132.9-6 3.3-40 22.2-37.9 6.3s7.6-5 10-6.3c13-7.3 26.9-12.1 39.3-21.1 38.1-27.7 63.1-70.3 77.9-113.9 11.2 2.9 18-6.5 32.9 7z" fill="#ea5229"/><path d="m1490 797.3c1 5.7-.2 13.3-1.4 19l5.7-2.1c-1.3 3.7-3 7.5-4.3 11.2l-2.1-5.6c-2.5 2.7-2.7 5-6.4 7-13.5.6-4.7-33.3 2.1-33.8l6.4 4.2z" fill="#f3e198"/><path d="m1601.4 885.9c-4.5-5.4-11.3-30.9-14.3-39.4 5.4.3 11.1 16.7 12.9 21.8s5.8 13.6 1.4 17.6z" fill="#fcb541"/><path d="m1472.9 540c1.9 13.3 54.5 148.8 62.9 164.5s2.2 2.9 8.6 7c38.9 25.3 153.6 52.5 202.9 67.5 7.7 2.4 16.9 3.9 22.9 5.6s4.6 2 7.1 2.8 7.5 5.7 11.4 4.2c0 .3 2.9 4.3 2.9 5.6s0 1.9 0 2.8c-2.9.5-2.5-1.1-4.3-2.8-14.9-13.5-21.7-4.1-32.9-7s-6.8-4.3-11.4-5.6c-50.6-14.6-100.5-33.1-150.7-49.2-1.7-.5-8.7-3.3-7.9 1.4-4.3-3.8-6.1-5.8-11.4-4.2 3.1-4.1-7.7-4.8-8.6-3.5s-3 21.5-2.9 23.9c.6 9.4 19.6 56 24.3 68.9s1.5 5.7 4.3 4.9c-.5 3.8 1 5.1 1.4 7s2.2 5.1 2.9 7c1.5 4.5 4.2 5.3 4.3 5.6 3.1 7.8 2.4 15.7 8.6 22.5 1 1.1 2.9 3.7 4.3 4.2-2 6.2 3.9 13.7 5.7 19s2.9 10.3 5.7 17.6-.6 18.7 14.3 15.5c-2.4 1.3-9.6 3.6-10 6.3-2.2 15.8 31.8-3 37.9-6.3 48.7-26.9 86-79.9 99.3-132.9 1.2-1.1 13.3 2.8 15.7 3.5-16.1 51.1-49.2 98.3-93.6 129.4-8.9 6.3-42.8 26.5-52.1 26.7s-4.4-5.8-4.3 0c-.2-.4-2.2-2.7-2.9-4.2-1.3-2.9-1.9-9.2-7.1-9.8 2.6-2.9-9.1-39-11.4-44.3-.4-.8-3.3-6.3-5.7-3.5 0-1.8 3.3-2.5 2.9-4.9s-2.3 3.1-4.3.7c4.3-4 .3-12.4-1.4-17.6s-7.5-21.5-12.9-21.8c-13.8-39.1-26.6-80.6-44.3-117.4-1.5-3.2-.3-13.6-7.9-14.8-25.6 75-51.6 149.8-76.4 225-.7 2.2-1.6 4.7-1.4 7-1.7-.4-4.1.4-5.7 0 .1-4.5 1.6-11.1 2.9-15.5 10.5-35.2 23.8-70.6 35.7-105.5s3-7.5 4.3-11.2l37.1-109-210-66.8c-6.9-.9-8.9-5.4-15.7-2.8-3.2-5.9 2.6-7.5 5.7-12.7-1.9 8 8.5 7.5 14.3 9.8 64.1 26 134.7 43.4 200.7 64.7-19.4-58-43.9-114.2-65-171.6-3.1-8.4-7-16.5-8.6-25.3 1.1-.3 2.9.7 2.9-1.4.2 1.9 10.2 33.3 11.4 35.9s2.7 5.4 5.7 4.9z" fill="#f18c54"/><path d="m1553.6 722.8c7.6 3.3 6.4 8.7 5.7 15.5-5.6 2.4-10.1-14.2-5.7-15.5z" fill="#fdd67b"/><path d="m1601.4 840.9c-.6 1.7 1 4.8-2.9 5.6-.1-.3-2.7-1.1-4.3-5.6.6-8.1 2.6-2.6 7.1 0z" fill="#f29686"/><path d="m1657.1 894.4c-1.7-2.9-4.3-.3-.7-4.2 12.4-13.7 29.1-25.2 42.1-41.5 15-18.7 26.3-39.1 41.4-58.4-6.8 47.4-43.3 80.3-82.9 104.1z" fill="#fcb541"/><path d="m1590 776.2c-12.4 1.9-24.7-20.2-24.3-30.9h2.9c-.6 14 20 32.6 22.9 24.6 1-2.7-13.5-30.8-20-31.6 2.3-2.9.7-5.3 6.4-4.2 11.2 10.2 22.7 28.8 12.1 42.2z" fill="#a4ba5b"/><path d="m1651.4 856.4c-9.7-9 3.8-10.7 1.4-20.4-.6-1.5-3.6-.3-4.3-.7-2.3-1.5-1.5-5.3-5.7 1.4-2.6-1.3.4-4.9 0-7-1.1-5.5-.6-7.3-7.1-4.2-10.4 4.9 0 13-1.4 16.2s-12.6 1.6-12.9-4.2c4.6-4.2 7.4-6.9 8.6-13.4s1.2-.6 0-4.2c-2.9-8.8-6.5.6-9.3-5.6-3.3 3.1-1.8 7.6-5 11.2-3.1-9.4-5.7-1.6-7.1 2.8-7.4 7.3-3.4 6.6-4.3 8.4s-1.5.4-2.9 4.2c-4.5-2.6-6.6-8.1-7.1 0-.7-1.9-2.4-5-2.9-7 1.8 0 1.7-1.5 1.4-2.8 9.2-.1 5.5-7.9 5.7-8.4 14.2-30.7 72.7-5 52.9 33.8z" fill="#e95f62"/><path d="m1630 819.8c-6.7-6.3-11.4 5.9 0 4.2-1.2 6.5-4 9.1-8.6 13.4.2 5.9 11 8.4 12.9 4.2s-9-11.3 1.4-16.2c0 5.9 3 8.5 7.1 4.2.4 2.1-2.6 5.7 0 7s4 2.5 5.7-1.4c.6.4 3.7-.8 4.3.7 2.4 9.7-11.1 11.4-1.4 20.4-6.7 13.1-22.4 17.4-35.7 14.1 5.7-8.3 2.5-12.2-5.7-2.8-.2.3-3.1-.8-2.9 1.4-6.2-6.8-5.5-14.7-8.6-22.5 3.8-.8 2.3-3.9 2.9-5.6 1.3-3.8 1.9-2.2 2.9-4.2 6.5 3.4 3.4-5.8 4.3-8.4.4-.4 5.2-.6 7.1-2.8 3.2-3.6 1.7-8.1 5-11.2 2.8 6.2 6.4-3.2 9.3 5.6z" fill="#e95f62"/><g fill="#f29686"><path d="m1629.3 852.2c3.7-.7 7.5 9.3 2.9 11.2s-7.9-10.4-2.9-11.2z"/><path d="m1612.1 843.8c2.1-1 9.3 2 9.3 3.5 0 8-21.1 2-9.3-3.5z"/><path d="m1615.7 870.5c-1.3-.3-5.3-1.6-5.7-2.8 8.2-9.4 11.5-5.5 5.7 2.8z"/><path d="m1642.9 829.7c-4.1 4.3-7.2 1.7-7.1-4.2 6.5-3.1 6-1.3 7.1 4.2z"/></g><path d="m1630 819.8c1.2 3.6.5 1.5 0 4.2-11.4 1.6-6.7-10.5 0-4.2z" fill="#f2a88e"/><path d="m1604.3 836.7c.9-1.8-3.1-1.2 4.3-8.4-.9 2.7 2.2 11.9-4.3 8.4z" fill="#f29686"/><path d="m1615.7 825.5c-1.9 2.2-6.7 2.4-7.1 2.8 1.5-4.4 4-12.3 7.1-2.8z" fill="#f29686"/><path d="m1639.3 850.8c1.6-1 7.2.5 6.4 3.5-1.5 5.5-10.9-.7-6.4-3.5z" fill="#f2a88e"/><path d="m1605 852.2c.5-.1 7.4 5.9 2.9 7s-6.3-6.3-2.9-7z" fill="#f29686"/><path d="m1648.6 835.3c-1.7 3.9-2.7 2.9-5.7 1.4 4.2-6.7 3.4-2.9 5.7-1.4z" fill="#f2a88e"/><path d="m1598.6 822.7c-.3.6 3.5 8.3-5.7 8.4-1-5.2-2.5-8 5.7-8.4z" fill="#f29686"/><path d="m1568.6 745.3c0-2.3 1.4-5.1 2.9-7 6.5.9 21 28.9 20 31.6-2.8 8-23.4-10.6-22.9-24.6z" fill="#f8e67b"/><path d="m1717.1 638.4c-60.9 20.8-121.7 42.3-181.4 66.1-8.3-15.7-60.9-151.3-62.9-164.5-5.3-36.1 29.5-32.8 55.7-32.3-44.7 11.9-23.7 90.8 27.9 66.1 27.9-13.4 27-57.7-2.1-66.1 1.2-2.2 4.1-2.9 6.4-2.8 44.6 1.4 97.8 37.5 126.4 69.6s33.7 40 30 64z" fill="#fdd67b"/><path d="m1552.1 607.5c4.3-.3 8.4 6.6 10 7s7.5-7.3 12.1.7c6.2 16-15.4 38.9-25.7 28.1-6.9-7.2-8.1-35.1 3.6-35.9z" fill="#71933d"/><path d="m1553.6 613.1c5.7.3 8.7 30.9 0 29.5s-10.8-30 0-29.5z" fill="#fdd67b"/><path d="m1567.9 614.5c2.1 0 3.7 1.4 3.6 3.5l-6.4 16.2c-.1-4.9-4.4-19.8 2.9-19.7z" fill="#e2cb51"/><path d="m1520.7 578c19.2-2.3 3.2 38.5-10 33.8-9.1-3.3.3-32.6 10-33.8z" fill="#71933d"/><path d="m1522.1 580.8c6.8.4-3.9 31.5-10 26.7-4.2-3.3 4.1-25.1 10-26.7z" fill="#fdd67b"/><path d="m1645 573.8c48.5-3.9 52.4 65.4 8.6 71.7-51.9 7.4-58-67.7-8.6-71.7z" fill="#c81c25"/><path d="m1668.6 583.6c.3 5.6-7.4.9-12.1 2.8s-1.7 5.1-2.9 5.6-9.1-3.1-9.3-3.5c-2.5-6.7 8.7-2.6 5-6.3-12.8-13-12.9 12.2-13.6 13.4s-6 4.2-7.1 4.9-4.5-.5-5 0c-3.2 3.2 3.7 9.9 7.9 5.6.2 3.3-.8 3.6-1.4 5.6-7-3.1-12.3 3.2-2.9 4.2-1 1.6.3 1.4-2.9 4.2-1.7-4.9-6.1-1.6-2.9 2.8-2.2.8-3.1-2.4-5.7 0-12.4-32.1 25.2-59.7 52.9-39.4z" fill="#e95f62"/><path d="m1628.6 600.5c3 2.5 2.6 1.6 2.9 5.6-4.2 4.2-11-2.4-7.9-5.6s4.2.5 5 0z" fill="#ec827e"/><path d="m1630 611.7c-1.2 4.1-2.2 3.2-2.9 4.2-9.5-1-4.1-7.3 2.9-4.2z" fill="#f29686"/><path d="m1668.6 583.6c46.9 34.4-33.6 89.4-52.9 39.4 2.6-2.4 3.5.8 5.7 0 4.5-1.5 1.9-2 2.9-2.8 3.2-2.8 1.8-2.6 2.9-4.2s1.7 0 2.9-4.2 1.6-2.3 1.4-5.6.2-3.1-2.9-5.6c1.1-.7 6.9-4.6 7.1-4.9.7-1.2.8-26.4 13.6-13.4 3.7 3.7-7.5-.3-5 6.3s8.8 3.7 9.3 3.5c1.2-.6 0-4.5 2.9-5.6 4.7-1.9 12.5 2.8 12.1-2.8z" fill="#e95f62"/><path d="m1646.4 614.5c6.5-3 8 6.6 4.3 8.4-5.5 2.7-9.4-6.1-4.3-8.4z" fill="#f29686"/><path d="m1657.9 587.8c4.6-1.7 7.1 5.4 2.9 7s-7.1-5.4-2.9-7z" fill="#f29686"/><path d="m1672.1 610.3c3.9 1.1 2.3 8.6-2.9 7s1.7-7.4 2.9-7z" fill="#ffab74"/><path d="m1667.9 597.7c1.3 0 5.9 5.6 1.4 7-6.6 2.1-4.9-7.1-1.4-7z" fill="#f29686"/><path d="m1652.1 596.2c1.3 0 5.9 5.6 1.4 7-6.6 2.1-4.9-7.1-1.4-7z" fill="#f29686"/><path d="m1655 627.2c4.6-1.5 6.7 4.6 2.9 5.6s-7.7-4-2.9-5.6z" fill="#f2a88e"/><path d="m1632.1 621.6c4.1-.9 4.6 6.6 1.4 7s-5.9-6.1-1.4-7z" fill="#f29686"/><path d="m1665 621.6c3.5-.8 4.8 4.9 1.4 5.6s-4.8-4.9-1.4-5.6z" fill="#f29686"/><path d="m1624.3 620.2c-.9.8 1.7 1.3-2.9 2.8-3.3-4.4 1.1-7.7 2.9-2.8z" fill="#f29686"/><path d="m1640.7 634.2c6.1-3.4 4.5 4.5 1.4 4.2s-3.4-3.1-1.4-4.2z" fill="#f2a88e"/><path d="m1554.3 507.7c29.1 8.4 30 52.7 2.1 66.1-51.6 24.7-72.6-54.2-27.9-66.1s18.1-2.2 25.7 0z" fill="#c81c25"/><path d="m1537.1 510.5c0 2 2.9 1.6 4.3 1.4 42.9-7.1 42.9 57.2 3.6 63.3-47.1 7.3-51.3-65.7-7.9-64.7z" fill="#e95f62"/><path d="m1541.4 511.9c-1.4.2-4.3.6-4.3-1.4 1.5 0 4.4-4.1 4.3 1.4z" fill="#f29686"/><path d="m1542.1 528.8c5.7-2.5 7.3 5.7 4.3 7-5.3 2.2-9.2-4.9-4.3-7z" fill="#f29686"/><path d="m1520.7 545.6c.5 0 5.6 7.8 2.9 9.8-4.8 3.6-8-9.9-2.9-9.8z" fill="#f29686"/><path d="m1552.1 518.9c1.3-.2 6.4 6.5 1.4 8.4s-4.2-8.1-1.4-8.4z" fill="#f2a88e"/><path d="m1523.6 527.3c6.1-2.3 5.3 6.9 1.4 7s-4.9-5.7-1.4-7z" fill="#f29686"/><path d="m1540.7 545.6c5.3-4.1 7.9 6.6 2.9 7s-5.6-4.9-2.9-7z" fill="#f29686"/><path d="m1562.1 527.3c3.8-.9 5 6.2 1.4 7-5.6 1.4-4-6.4-1.4-7z" fill="#f29686"/><path d="m1557.9 547c6.2-1.8 6.4 4.3 2.9 5.6s-6.9-4.4-2.9-5.6z" fill="#f29686"/><path d="m1562.1 537.2c6.8-1.6 6 4.7 2.9 5.6s-6.9-4.6-2.9-5.6z" fill="#ec827e"/><path d="m1537.9 563.9c1.4 0 3.6 6.6 2.9 7-5.9 3.5-6.3-7-2.9-7z" fill="#f29686"/><path d="m1512.1 535.8c2.2-1.6 5.4 5.2 2.9 7s-5.4-5.2-2.9-7z" fill="#f29686"/><path d="m1552.1 556.9c1.3-.7 6.4.5 6.4 2.1 0 4.5-10.9.4-6.4-2.1z" fill="#f2a88e"/><path d="m1542.1 517.5c4.2-.2 1.5 5.6 0 5.6-2.4 0-2.6-5.5 0-5.6z" fill="#f29686"/><path d="m1530.7 517.5c1.8-1.2 1.9 5.4 0 4.2s-1.2-3.4 0-4.2z" fill="#ec827e"/><path d="m1587.1 846.6c3 8.5 9.8 33.9 14.3 39.4s3.8-3.1 4.3-.7-2.9 3.1-2.9 4.9c0 8.1 5 16.6 2.9 26-3.5 15.2-42.8 17.1-55.7 19 27.4-10.1 33.2-51.1 6.4-64.7-55.4-28.2-84.4 67-17.9 66.1-.1 0 .5 2.7-.7 2.8-24.6 2.5-54.4 1.3-79.3 0 24.9-75.2 50.9-150 76.4-225 7.6 1.1 6.3 11.6 7.9 14.8 17.7 36.8 30.5 78.3 44.3 117.4z" fill="#fdd67b"/><path d="m1557.9 815.6c13-3.1 25.9 40.3 11.4 42.2-17.3 2.3-21.5-39.8-11.4-42.2z" fill="#a4ba5b"/><path d="m1559.3 819.8c22.5 29.7-1.9 53.3-3.6 3.5z" fill="#f3e198"/><path d="m1533.6 769.2c17 .7 2.8 45.9-12.9 39.4s3.3-39.7 12.9-39.4z" fill="#a4ba5b"/><path d="m1533.6 773.4 3.6 2.1c2.8 49-35.6 24.6-3.6-2.1z" fill="#fdd67b"/><path d="m1572.9 732.7c-7.2 2.1-6.9 6.2-7.1 12.7-.4 10.7 11.9 32.9 24.3 30.9 15.5-2.4 1.9-32.7-5.7-39.4-.9-4.7 6.2-1.9 7.9-1.4 50.2 16.2 100.1 34.6 150.7 49.2-1.1 1.7-1.6 4.1-2.9 5.6-15.1 19.3-26.4 39.6-41.4 58.4-13 16.2-29.7 27.8-42.1 41.5-3.5 3.9-1 1.3.7 4.2-10.5 6.3-22.2 12.7-34.3 15.5-2.8-7.3-3.7-11.7-5.7-17.6s-7.7-12.8-5.7-19c32.8 12.1 63.7-28.7 36.4-56.2-16-16.2-55.1-10.9-57.9 9.8-2.7.8-3.6-2.9-4.3-4.9-4.7-12.9-23.7-59.5-24.3-68.9-.1-2.4 2.2-22.9 2.9-23.9s11.7-.6 8.6 3.5z" fill="#fdd67b"/><path d="m1611.4 873.3c-1.3-.5-3.3-3.2-4.3-4.2-.2-2.2 2.6-1.1 2.9-1.4.4 1.2 4.4 2.5 5.7 2.8 13.3 3.4 29-1 35.7-14.1 19.8-38.7-38.7-64.5-52.9-33.8-8.2.4-6.8 3.3-5.7 8.4s.3 2.9-1.4 2.8c-.4-1.9-1.9-3.2-1.4-7 2.8-20.8 41.9-26 57.9-9.8 27.3 27.6-3.6 68.3-36.4 56.2z" fill="#c81c25"/><path d="m1584.3 736.9c7.6 6.7 21.2 37 5.7 39.4 10.5-13.4-1-32-12.1-42.2-5.7-1.1-4.2 1.3-6.4 4.2s-2.8 4.7-2.9 7h-2.9c.2-6.5 0-10.5 7.1-12.7s7.1.4 11.4 4.2z" fill="#71933d"/><path d="m1677.9 767.8c16.5-1.2 4.2 39.5-8.6 38-12.5-1.5-.1-37.3 8.6-38z" fill="#71933d"/><path d="m1677.9 772c10.5-.9 3.6 32-10 29.5-4-4.8 5.2-29.1 10-29.5z" fill="#fdd67b"/><path d="m1685 829.7c3.8-.9 5.6.9 7.9 3.5 2.2 7.6-9.9 33.3-19.3 26-7.1-5.6 5.8-28.3 11.4-29.5z" fill="#71933d"/><path d="m1685 832.5c3.4-1.8 5.4 6.7 5 9.1s-10.5 13-13.6 14.8c-3.5-4.3 6.9-23 8.6-23.9z" fill="#fdd67b"/><path d="m1734.3 655.3c29.1 35.7 25 82.1 12.9 123.8-49.2-15-163.9-42.2-202.9-67.5l78.6-21.1c-6.2 5-18.7 23.8-5.7 26.7 1.7.3 1.3-1.4 1.4-1.4 11-.6 29.1-21.3 17.1-29.5 31.6-13.3 65.9-20.9 98.6-30.9z" fill="#fcc66a"/><path d="m1635.7 686.2c12 8.2-6.1 29-17.1 29.5 8.8-2.9 22.3-20.9 14.3-29.5.6-.3 2.2.3 2.9 0z" fill="#71933d"/><path d="m1702.1 686.2c50.8-6.3 54.4 63.1 14.3 70.3-52.9 9.6-61.6-64.4-14.3-70.3z" fill="#c81c25"/><path d="m1714.3 690.5c-15.6-.5-12.5 8.5-22.9 12 1.1 1.2 2.3 0 2.9 2.1-5.2-.1-5.3 4.8-2.9 8.4-.5.2-9.6-1-11.4 0-.1-1.3 4.1-5.2-2.9-5.6 6.3-14.7 22.5-19 37.1-16.9z" fill="#e95f62"/><path d="m1680 713c0 .2-3.4.8-2.1 2.8 2.9 4.7 8.9-1.8 11.4 1.4s-8.4 16.4-10.7 21.1c-5.7-11.1-6.3-19.4-1.4-30.9 7 .4 2.7 4.3 2.9 5.6z" fill="#e95f62"/><path d="m1678.6 738.3c2.4-4.7 14.1-16.8 10.7-21.1s-8.5 3.3-11.4-1.4 2.2-2.6 2.1-2.8c1.8-1 10.9.2 11.4 0 5.9-2.4 3.8-4.6 2.9-8.4s-1.8-.9-2.9-2.1c10.3-3.4 7.3-12.4 22.9-12 11.6 1.7 22.2 7.4 25.7 19 12.3 40.5-44.3 62.1-61.4 28.8z" fill="#e95f62"/><path d="m1706.4 725.6c4.5-1.9 8.5 3.2 5.7 7s-12.6-4.1-5.7-7z" fill="#f29686"/><path d="m1719.3 698.9c4.5-1.8 9 8.9 1.4 8.4s-4.7-7.2-1.4-8.4z" fill="#f29686"/><path d="m1710.7 707.3c5.6.9 3.6 12-2.9 8.4s-.6-9 2.9-8.4z" fill="#f29686"/><path d="m1694.3 704.5c.9 3.8 3.1 6-2.9 8.4-2.5-3.6-2.4-8.5 2.9-8.4z" fill="#f29686"/><path d="m1706.4 743.9c4.4-.1 4.7 6 1.4 7-5.6 1.8-5-6.9-1.4-7z" fill="#f2a88e"/><path d="m1725 731.2c3.5-.8 4.8 4.9 1.4 5.6s-4.8-4.9-1.4-5.6z" fill="#febe94"/><path d="m1707.9 697.5c5.1-3.3 5.1 6.3 1.4 5.6s-3.3-4.4-1.4-5.6z" fill="#f2a88e"/><path d="m1729.3 711.6c4.8-2.4 4.1 5.6 1.4 5.6s-3.5-4.6-1.4-5.6z" fill="#f29686"/><path d="m1730.7 722.8c.7 0 3.5 3.3 1.4 4.2-4.7 2.1-3.9-4.1-1.4-4.2z" fill="#f2a88e"/><path d="m1697.9 738.3c3.1-2.2 1.7 5 0 4.2s-1.2-3.4 0-4.2z" fill="#ec827e"/><path d="m1550 935.2c-3.8.6-7.6 1-11.4 1.4-66.6 1-37.5-94.3 17.9-66.1 26.8 13.6 21 54.5-6.4 64.7z" fill="#d73237"/><path d="m1529.3 869.1c48.2-7.2 54.4 57.5 17.1 64.7-53.7 10.4-55.8-58.9-17.1-64.7z" fill="#e95f62"/><path d="m1536.4 905.6c5.2-2.1 8.5 5.6 4.3 7-7.5 2.5-8.4-5.3-4.3-7z" fill="#f29686"/><path d="m1519.3 885.9c5.8-1.2 6.7 6.8 2.9 8.4s-6-7.8-2.9-8.4z" fill="#f29686"/><path d="m1547.9 878.9c2.9-1 7.8 6.6 2.9 8.4-5.1 1.9-7.1-7-2.9-8.4z" fill="#f29686"/><path d="m1556.4 888.8c4.9-1.3 6.6 7.4 2.9 8.4s-7-7.4-2.9-8.4z" fill="#f29686"/><path d="m1537.9 876.1c3.8-.9 5 6.2 1.4 7-5.6 1.4-4-6.4-1.4-7z" fill="#f2a88e"/><path d="m1547.9 919.7c5.1-1.3 6.4 4.8 2.9 5.6s-6.8-4.6-2.9-5.6z" fill="#f2a88e"/><path d="m1533.6 923.9c4.5-1.2 4.6 4.3 2.9 5.6-3.5 2.7-6.2-4.7-2.9-5.6z" fill="#f2a88e"/><path d="m1542.1 890.2c4 .8 2.7 8.1-4.3 5.6-.9-1.3 3.9-5.7 4.3-5.6z" fill="#f29686"/><path d="m1525 916.9c4.1-1.1 3.1 5.3 1.4 5.6-3.4.7-4.9-4.7-1.4-5.6z" fill="#f29686"/><path d="m1555 912.7c5.8-1 3.6 5.2 1.4 5.6s-5.5-5-1.4-5.6z" fill="#febe94"/><path d="m1560.7 902.8c3.2.4 1.7 5.4-2.9 4.2-2.5-1.8 2.6-4.2 2.9-4.2z" fill="#f2a88e"/><path d="m1507.9 902.8c.7-.4 3.8 4.6 1.4 5.6s-3-4.8-1.4-5.6z" fill="#f2a88e"/><path d="m1494.3 814.2-5.7 2.1c1.2-5.7 2.4-13.3 1.4-19-7.3-43.1-41.7 47.6-8.6 29.5 3.7-2 3.9-4.3 6.4-7l2.1 5.6c-12 34.8-25.2 70.3-35.7 105.5-78.6-32.8-142.1-97.7-148.6-184.9s2.3-73 15.7-107.6l210 66.8-37.1 109z" fill="#fdd67b"/><path d="m1490 797.3-6.4-4.2c-6.8.4-15.7 34.3-2.1 33.8-33.2 18.1 1.3-72.6 8.6-29.5z" fill="#a4ba5b"/><path d="m1352.1 673.6c19.8-4.1 11.8 46.5-4.3 43.6s-7-41.3 4.3-43.6z" fill="#81922d"/><path d="m1352.1 676.4c13.8-3.7 10.6 32.5-1.4 36.6-5-5.2-4.8-34.9 1.4-36.6z" fill="#fdd67b"/><path d="m1429.3 732.7c21.3-6.5 11.1 47.8-5.7 40.8-7.5-3.1-2.3-38.3 5.7-40.8z" fill="#89a141"/><path d="m1432.1 735.5 6.4 4.9c-7.1 3.8 0 2.5 0 2.8.1 4.7-5.2 27.7-10.7 26-6.8-10.5-4.6-25 4.3-33.8z" fill="#fdd67b"/><path d="m1396.4 689.1c21.6-4.4 42.7 18 12.9 19.7s-29.6-16.3-12.9-19.7z" fill="#71933d"/><path d="m1393.6 694.7c3.4-1.6 29.2 1 27.9 6.3-9.6 5.3-20.3 4.6-30 0-.2-2.2-.4-5.1 2.1-6.3z" fill="#fdd67b"/><path d="m1416.4 824.1c52.9-3.6 49.9 81.7-8.6 71.7-37.3-6.4-35.3-68.7 8.6-71.7z" fill="#d73237"/><path d="m1418.6 891.6c.6-10.5-7.9-8.8-4.3 1.4-45.5-3.8-37.2-67.5 6.4-66.1 37.7 1.2 41 53.7 8.6 64.7-5.5 1.9-8.1-.1-10.7 0z" fill="#e95f62"/><path d="m1418.6 891.6c-1.3 0-1.5 1.6-4.3 1.4-3.6-10.3 4.9-12 4.3-1.4z" fill="#f2a88e"/><path d="m1396.4 850.8c2-.8 6.4 1.8 7.9 3.5-3 7.3-6.6 1.9-6.4 10.5-7.1-.4-4.2-12.9-1.4-14.1z" fill="#f29686"/><path d="m1417.9 863.4c4.6-.7 7.5 6.3 2.9 8.4-7 3.3-8.1-7.7-2.9-8.4z" fill="#f29686"/><path d="m1437.9 848c4.5-.3 4.8 7.3 1.4 8.4-5.4 1.8-6.3-8.1-1.4-8.4z" fill="#f29686"/><path d="m1429.3 836.7c4.2-1.5 6.6 8.1 1.4 8.4s-3.9-7.6-1.4-8.4z" fill="#f2a88e"/><path d="m1400.7 867.7c3.6-1.2 5.4 6.9 1.4 8.4-6.9 2.7-3.2-7.8-1.4-8.4z" fill="#f29686"/><path d="m1440.7 862c6.9.9-1.4 12.5-3.6 4.9-.5-1.6 3.3-5 3.6-4.9z" fill="#f2a88e"/><path d="m1417.9 833.9c2 .3 3.2 5.7 1.4 7-5 3.8-5.8-7.7-1.4-7z" fill="#f2a88e"/><path d="m1435 873.3c4.2-.2 1.5 5.6 0 5.6-2.4 0-2.6-5.5 0-5.6z" fill="#febe94"/><path d="m1425 849.4c3.1-2.2 1.7 5 0 4.2s-1.2-3.4 0-4.2z" fill="#f29686"/><path d="m1359.3 731.2c50.8 0 44.1 78-7.1 73.1-41.3-3.9-40.6-73.2 7.1-73.1z" fill="#c81c25"/><path d="m1325.7 769.2c7.5-.4 1.8-7.4 4.3-12s18.2-18.3 20.7-19c4.5-1.2 15.7 3.1 17.9-2.8 11.2 1.9 23.2 15.4 24.3 26 4.4 42.6-65.3 59-67.1 7.7z" fill="#e95f62"/><path d="m1368.6 735.5c-2.2 5.9-13.4 1.6-17.9 2.8s-18.3 14.5-20.7 19 3.2 11.6-4.3 12c-.9-24.5 18.6-37.8 42.9-33.8z" fill="#ec7266"/><path d="m1357.9 772c6-2.5 7.1 6 4.3 7-7.3 2.6-8.5-5.3-4.3-7z" fill="#f29686"/><path d="m1340.7 752.3c5.2-3.8 8 8.3 2.9 8.4s-5.3-6.7-2.9-8.4z" fill="#f29686"/><path d="m1369.3 745.3c5.1-1.9 6.4 8.1 1.4 8.4s-3.1-7.8-1.4-8.4z" fill="#ffab74"/><path d="m1338.6 781.9 4.3-2.8c9.2 5.2 0 11.3-4.3 2.8z" fill="#ec827e"/><path d="m1380.7 755.2c6.9.9-1.4 12.5-3.6 4.9-.5-1.6 3.3-5 3.6-4.9z" fill="#f2a88e"/><path d="m1342.9 779.1-4.3 2.8c-1.5-2.9-2.7-3 .7-5.6 2.2-.9 3.4 2.7 3.6 2.8z" fill="#f29686"/><path d="m1359.3 741.1c1.9-.4 4.5 6.5 1.4 7s-4.8-6.3-1.4-7z" fill="#f29686"/><path d="m1356.4 790.3c3.4-.8 4.8 4.9 1.4 5.6-5.5 1.2-4-5-1.4-5.6z" fill="#f2a88e"/><path d="m1375 777.7c3.2-2.2 6.2 3.6 0 5.6-1.1-1.2-1.2-4.8 0-5.6z" fill="#febe94"/><path d="m1370.7 784.7c1.3 0 3.5 4.6 1.4 5.6-4.8 2.4-4.1-5.6-1.4-5.6z" fill="#f2a88e"/><path d="m1360.7 758c1-.7 4.6.1 3.6 2.1s-6.6 0-3.6-2.1z" fill="#f29686"/><path d="m1461.4 525.9c21.1 57.4 45.6 113.6 65 171.6-66-21.3-136.6-38.7-200.7-64.7 23.1-55.6 79.5-89.8 135.7-106.9z" fill="#fdd67b"/><path d="m1441.4 569.5c-1-1-10.7-8.2-11.4-8.4 1-23.8 24-9.1 11.4 8.4z" fill="#fcc66a"/><path d="m1477.9 635.6c1 .2 15.9 11.1 16.4 12 2.9 4.7 3.9 10.8 2.1 16.2-8.7 13.6-66.4-27.6-21.4-25.3.5 0 2.5-2.9 2.9-2.8z" fill="#81922d"/><path d="m1465 641.2c7.2-1.7 30.7 7.6 29.3 16.2-1 6.4-40-10.8-29.3-16.2z" fill="#f8e67b"/><path d="m1430 561.1c.7.2 10.5 7.4 11.4 8.4 32.2 33.7-15.9 80.6-50.7 53.4-31.3-24.4-.8-74.3 39.3-61.9z" fill="#c81c25"/><path d="m1410.7 562.5c39.3-4.2 51.1 44.5 21.4 61.9s-3.2-2.4-5.7-1.4-5.2 5.5-5.7 5.6c-44.4 8.4-55.1-61.3-10-66.1z" fill="#e95f62"/><path d="m1389.3 593.4c7.2-.7 4.7 11.2 0 9.8s-3.9-9.5 0-9.8z" fill="#f19576"/><path d="m1429.3 575.2c6.2-1.7 8 6.1 4.3 7s-7.8-6.1-4.3-7z" fill="#f2a88e"/><path d="m1399.3 603.3c4.7-.3 4.7 7.5 1.4 8.4s-7-8.1-1.4-8.4z" fill="#f29686"/><path d="m1409.3 615.9c6.1-2.3 5.3 6.9 1.4 7s-4.9-5.7-1.4-7z" fill="#f2a88e"/><path d="m1430.7 610.3c3.9-.5 5 5.6 1.4 7-6.1 2.4-4.6-6.7-1.4-7z" fill="#ffab74"/><path d="m1416.4 569.5c3.4.7 2.5 8-1.4 7s-1.1-7.5 1.4-7z" fill="#f29686"/><path d="m1436.4 589.2c4.6-1 4.6 4.3 2.9 5.6-3 2.3-7.5-4.7-2.9-5.6z" fill="#f29686"/><path d="m1433.6 600.5c3-2.3 7.5 4.7 2.9 5.6s-4.6-4.3-2.9-5.6z" fill="#f29686"/><path d="m0 0h1920v1080h-1920z" fill="#fef3c6" opacity=".8"/></svg>